<svg width="63" height="18" viewBox="0 0 63 18" fill="none" xmlns="http://www.w3.org/2000/svg">
<path d="M10.0266 5.325V2H0.726562V17H4.55156V11.15H9.17656V7.85H4.55156V5.325H10.0266ZM21.8781 14C21.5531 14 21.3781 13.5 21.3781 12.7V11.025C21.3781 8.45 19.4281 6.8 16.3281 6.8C13.2531 6.8 11.3031 8.2 11.3031 10.4H15.0281C15.0281 9.85 15.5531 9.5 16.3281 9.5C17.1531 9.5 17.6781 9.925 17.6781 10.6V11.35H14.3781C12.5031 11.35 11.3031 12.525 11.3031 14.325C11.3031 16.075 12.7781 17.2 15.0781 17.2C16.4781 17.2 17.7281 16.7 18.5031 15.9C19.1281 16.725 20.1031 17.2 21.3031 17.2C21.5781 17.2 22.0031 17.125 22.3531 17V14H21.8781ZM16.1531 14.8C15.4531 14.8 15.0031 14.55 15.0031 14.15C15.0031 13.725 15.2781 13.475 15.7281 13.475H17.6781C17.5781 14.3 17.0031 14.8 16.1531 14.8ZM27.3523 17.2C29.7773 17.2 31.1523 15.75 31.1523 13.85C31.1523 11.775 29.4023 10.95 27.9523 10.375C27.4023 10.15 27.1273 10.05 27.1273 9.825C27.1273 9.65 27.2773 9.45 27.7523 9.45C28.4023 9.45 29.0023 9.825 29.3523 10.15L30.9773 8.025C30.1023 7.3 28.9023 6.8 27.4773 6.8C24.9273 6.8 23.5023 8.45 23.5023 10.125C23.5023 12.25 25.8273 12.875 26.7273 13.225C27.5523 13.525 27.7523 13.75 27.7523 13.975C27.7523 14.225 27.5023 14.375 27.0773 14.375C26.7023 14.375 26.0523 14.275 25.5023 13.4L22.9023 14.75C23.5523 16.4 25.5273 17.2 27.3523 17.2ZM39.8266 6.8C38.5766 6.8 37.5266 7.425 36.8016 8.45V0.275H33.1016V17H36.8016V11.6C36.8016 10.825 37.4516 10.025 38.3516 10.025C39.1516 10.025 39.6766 10.65 39.6766 11.375V17H43.3766V10.675C43.3766 8.45 41.8266 6.8 39.8266 6.8ZM56.575 11.975C56.55 8.775 54.35 6.775 50.925 6.775C47.525 6.775 45.175 8.775 45.175 12C45.175 15.2 47.5 17.2 51.025 17.2C54.075 17.2 55.95 15.75 56.4 13.575H52.85C52.675 14.225 52.025 14.6 51 14.6C49.65 14.6 49.175 13.9 49.1 12.6H56.55L56.575 11.975ZM51 9.5C51.95 9.5 52.475 9.875 52.75 10.55H49.25C49.5 9.875 50 9.5 51 9.5Z" fill="black"/>
<path d="M61.018 17.2C62.093 17.2 62.993 16.3 62.993 15.25C62.993 14.175 62.093 13.3 61.018 13.3C59.968 13.3 59.068 14.175 59.068 15.25C59.068 16.3 59.968 17.2 61.018 17.2Z" fill="#66A8A6"/>
</svg>
